<?xml version="1.0" standalone="no"?>
<!DOCTYPE svg PUBLIC "-//W3C//DTD SVG 20010904//EN"
 "http://www.w3.org/TR/2001/REC-SVG-20010904/DTD/svg10.dtd">
<svg version="1.0" xmlns="http://www.w3.org/2000/svg"
 width="114.000000pt" height="116.000000pt" viewBox="0 0 114.000000 116.000000"
 preserveAspectRatio="xMidYMid meet">
<metadata>
Created by potrace 1.12, written by Peter Selinger 2001-2015
</metadata>
<g transform="translate(0.000000,116.000000) scale(0.100000,-0.100000)"
fill="#000000" stroke="none">
<path d="M0 580 l0 -580 570 0 570 0 0 580 0 580 -570 0 -570 0 0 -580z m1130
0 l0 -570 -560 0 -560 0 0 570 0 570 560 0 560 0 0 -570z"/>
<path d="M70 789 c0 -77 1 -80 22 -77 14 2 25 15 35 42 24 71 33 76 150 76 56
0 103 -2 103 -5 0 -2 -70 -129 -155 -282 -85 -153 -155 -283 -155 -290 0 -10
47 -13 210 -13 l210 0 0 85 c0 78 -2 85 -20 85 -15 0 -22 -11 -31 -44 -6 -24
-21 -54 -34 -66 -20 -19 -32 -20 -128 -18 l-107 3 155 278 c85 152 155 284
155 292 0 13 -30 15 -205 15 l-205 0 0 -81z"/>
<path d="M590 862 c0 -5 11 -17 25 -26 l25 -16 0 -265 0 -265 -25 -16 c-14 -9
-25 -20 -25 -25 0 -16 281 -11 337 6 147 44 168 242 33 301 l-40 18 37 21 c75
41 105 133 68 204 -28 54 -71 66 -262 69 -107 2 -173 0 -173 -6z m327 -58 c38
-28 51 -81 32 -130 -22 -59 -57 -78 -150 -83 l-79 -3 0 122 0 122 84 -3 c66
-3 91 -8 113 -25z m-35 -264 c56 -16 78 -51 78 -124 0 -102 -42 -136 -170
-136 l-70 0 0 135 0 135 63 0 c34 0 79 -5 99 -10z"/>
</g>
</svg>
