<?xml version="1.0" standalone="no"?>
<!DOCTYPE svg PUBLIC "-//W3C//DTD SVG 20010904//EN"
 "http://www.w3.org/TR/2001/REC-SVG-20010904/DTD/svg10.dtd">
<svg version="1.0" xmlns="http://www.w3.org/2000/svg"
 width="719.000000pt" height="67.000000pt" viewBox="0 0 719.000000 67.000000"
 preserveAspectRatio="xMidYMid meet">
<metadata>
Created by potrace 1.12, written by Peter Selinger 2001-2015
</metadata>
<g transform="translate(0.000000,67.000000) scale(0.100000,-0.100000)"
fill="#000000" stroke="none">
<path d="M1830 661 c0 -6 12 -16 28 -23 l27 -13 3 -282 2 -282 -25 -17 c-14
-9 -25 -20 -25 -25 0 -5 41 -9 90 -9 90 0 115 11 66 29 -29 12 -36 43 -36 173
0 139 31 188 118 188 68 0 76 -19 80 -186 l4 -143 -26 -24 c-14 -13 -26 -27
-26 -31 0 -3 38 -6 85 -6 69 0 85 3 85 15 0 8 -7 15 -15 15 -27 0 -35 39 -35
180 0 99 -4 151 -14 175 -16 37 -59 65 -101 65 -32 0 -93 -31 -119 -59 -11
-12 -23 -21 -28 -21 -4 0 -8 65 -8 145 l0 145 -65 0 c-36 0 -65 -4 -65 -9z"/>
<path d="M4590 661 c0 -6 12 -16 28 -23 l27 -13 3 -282 2 -282 -25 -17 c-14
-9 -25 -20 -25 -25 0 -5 41 -9 90 -9 50 0 90 4 90 9 0 5 -11 16 -25 25 -24 16
-25 22 -25 106 0 87 1 90 23 90 31 0 36 -5 100 -91 56 -74 67 -102 47 -114
-27 -17 -2 -25 75 -25 87 0 107 10 61 32 -22 10 -170 190 -182 222 -6 15 111
128 156 151 51 26 35 35 -65 35 -52 0 -95 -3 -95 -8 0 -4 9 -13 20 -20 11 -7
20 -20 20 -31 0 -28 -103 -121 -134 -121 l-26 0 0 200 0 200 -70 0 c-38 0 -70
-4 -70 -9z"/>
<path d="M5090 661 c0 -6 12 -16 28 -23 l27 -13 3 -282 2 -282 -25 -17 c-14
-9 -25 -20 -25 -25 0 -5 41 -9 90 -9 90 0 115 11 66 29 -29 12 -36 43 -36 173
0 139 31 188 118 188 68 0 76 -19 80 -186 l4 -143 -26 -24 c-14 -13 -26 -27
-26 -31 0 -3 38 -6 85 -6 69 0 85 3 85 15 0 8 -7 15 -15 15 -27 0 -35 39 -35
180 0 99 -4 151 -14 175 -16 37 -59 65 -101 65 -32 0 -93 -31 -119 -59 -11
-12 -23 -21 -28 -21 -4 0 -8 65 -8 145 l0 145 -65 0 c-36 0 -65 -4 -65 -9z"/>
<path d="M10 559 c0 -77 1 -80 22 -77 14 2 25 15 35 42 24 71 33 76 150 76 56
0 103 -2 103 -5 0 -2 -70 -129 -155 -282 -85 -153 -155 -283 -155 -290 0 -10
47 -13 210 -13 l210 0 0 85 c0 78 -2 85 -20 85 -15 0 -22 -11 -31 -44 -6 -24
-21 -54 -34 -66 -20 -19 -32 -20 -128 -18 l-107 3 155 278 c85 152 155 284
155 292 0 13 -30 15 -205 15 l-205 0 0 -81z"/>
<path d="M3580 632 c0 -5 11 -17 25 -26 l25 -16 0 -265 0 -265 -25 -16 c-14
-9 -25 -20 -25 -25 0 -16 281 -11 337 6 147 44 168 242 33 301 l-40 18 37 21
c75 41 105 133 68 204 -28 54 -71 66 -262 69 -107 2 -173 0 -173 -6z m327 -58
c38 -28 51 -81 32 -130 -22 -59 -57 -78 -150 -83 l-79 -3 0 122 0 122 84 -3
c66 -3 91 -8 113 -25z m-35 -264 c56 -16 78 -51 78 -124 0 -102 -42 -136 -170
-136 l-70 0 0 135 0 135 63 0 c34 0 79 -5 99 -10z"/>
<path d="M633 439 c-79 -39 -123 -145 -109 -259 17 -137 117 -206 246 -170 51
14 114 68 100 85 -9 11 -18 9 -47 -11 -44 -29 -135 -34 -172 -8 -29 21 -51 72
-51 119 l0 35 146 0 147 0 -7 53 c-11 81 -40 132 -90 156 -54 27 -110 27 -163
0z m139 -36 c16 -18 38 -84 38 -115 0 -16 -12 -18 -105 -18 -77 0 -105 3 -105
13 0 32 24 92 45 113 30 30 103 34 127 7z"/>
<path d="M1093 439 c-79 -39 -123 -145 -109 -259 17 -137 117 -206 246 -170
51 14 114 68 100 85 -9 11 -18 9 -47 -11 -44 -29 -135 -34 -172 -8 -29 21 -51
72 -51 119 l0 35 146 0 147 0 -7 53 c-11 81 -40 132 -90 156 -54 27 -110 27
-163 0z m139 -36 c16 -18 38 -84 38 -115 0 -16 -12 -18 -105 -18 -77 0 -105 3
-105 13 0 32 24 92 45 113 30 30 103 34 127 7z"/>
<path d="M1524 441 c-51 -23 -74 -55 -74 -102 0 -53 39 -94 125 -134 101 -46
132 -98 85 -145 -31 -31 -123 -28 -155 5 -14 13 -25 31 -25 40 0 8 -9 15 -20
15 -17 0 -20 -7 -20 -49 0 -58 3 -60 110 -68 99 -7 163 17 185 71 33 79 7 129
-92 177 -106 51 -123 65 -123 103 0 46 26 66 87 66 39 0 54 -5 71 -23 12 -13
22 -29 22 -35 0 -7 9 -12 20 -12 17 0 20 7 20 49 0 48 0 48 -37 55 -68 11
-137 6 -179 -13z"/>
<path d="M2505 453 c-11 -3 -41 -14 -67 -25 -44 -19 -48 -23 -48 -54 0 -29 3
-34 24 -34 16 0 27 7 31 20 16 51 97 77 142 45 23 -16 43 -70 43 -116 0 -24
-4 -27 -52 -33 -93 -12 -136 -27 -175 -61 -35 -30 -38 -37 -38 -83 0 -39 5
-56 24 -76 45 -48 136 -44 199 9 38 32 42 31 42 -5 l0 -30 60 0 c65 0 74 9 35
34 -25 16 -25 17 -25 167 0 169 -10 208 -59 233 -29 15 -93 19 -136 9z m125
-273 c0 -52 -23 -96 -60 -115 -31 -16 -87 -20 -106 -7 -35 23 -40 96 -8 122
24 20 87 39 132 40 l42 0 0 -40z"/>
<path d="M3045 444 c-16 -8 -41 -26 -56 -40 -33 -32 -39 -30 -39 11 l0 35 -65
0 c-51 0 -65 -3 -65 -15 0 -8 9 -15 20 -15 33 0 40 -32 40 -195 0 -154 0 -156
-25 -179 -14 -13 -25 -26 -25 -30 0 -3 38 -6 85 -6 47 0 85 3 85 6 0 4 -11 17
-25 30 -24 22 -25 27 -25 155 l0 131 34 34 c29 29 41 34 80 34 71 0 80 -22 84
-192 4 -137 4 -137 -22 -161 -14 -13 -26 -27 -26 -31 0 -3 38 -6 85 -6 47 0
85 3 85 6 0 4 -11 17 -25 30 -24 23 -25 26 -25 169 0 165 -10 204 -59 229 -38
20 -78 20 -116 0z"/>
<path d="M4285 453 c-11 -3 -41 -14 -67 -25 -44 -19 -48 -23 -48 -54 0 -29 3
-34 24 -34 16 0 27 7 31 20 16 51 97 77 142 45 23 -16 43 -70 43 -116 0 -24
-4 -27 -52 -33 -93 -12 -136 -27 -175 -61 -35 -30 -38 -37 -38 -83 0 -39 5
-56 24 -76 45 -48 136 -44 199 9 38 32 42 31 42 -5 l0 -30 60 0 c65 0 74 9 35
34 -25 16 -25 17 -25 167 0 169 -10 208 -59 233 -29 15 -93 19 -136 9z m125
-273 c0 -52 -23 -96 -60 -115 -31 -16 -87 -20 -106 -7 -35 23 -40 96 -8 122
24 20 87 39 132 40 l42 0 0 -40z"/>
<path d="M5845 446 c-16 -7 -41 -25 -54 -40 -33 -35 -41 -33 -41 9 l0 35 -65
0 c-67 0 -85 -13 -40 -30 34 -13 37 -34 33 -210 -3 -145 -4 -153 -25 -168 -13
-8 -23 -18 -23 -23 0 -5 41 -9 90 -9 90 0 115 11 66 29 -33 13 -36 27 -36 168
l0 125 34 34 c21 21 44 34 59 34 25 0 57 -23 57 -41 0 -5 11 -9 25 -9 24 0 25
3 25 55 l0 55 -37 0 c-21 -1 -51 -7 -68 -14z"/>
<path d="M6155 453 c-11 -3 -41 -14 -67 -25 -44 -19 -48 -23 -48 -54 0 -29 3
-34 24 -34 16 0 27 7 31 20 16 51 97 77 142 45 23 -16 43 -70 43 -116 0 -24
-4 -27 -52 -33 -93 -12 -136 -27 -175 -61 -35 -30 -38 -37 -38 -83 0 -39 5
-56 24 -76 45 -48 136 -44 199 9 38 32 42 31 42 -5 l0 -30 60 0 c65 0 74 9 35
34 -25 16 -25 17 -25 167 0 169 -10 208 -59 233 -29 15 -93 19 -136 9z m125
-273 c0 -52 -23 -96 -60 -115 -31 -16 -87 -20 -106 -7 -35 23 -40 96 -8 122
24 20 87 39 132 40 l42 0 0 -40z"/>
<path d="M6695 444 c-16 -8 -41 -26 -56 -40 -33 -32 -39 -30 -39 11 l0 35 -65
0 c-51 0 -65 -3 -65 -15 0 -8 9 -15 20 -15 33 0 40 -32 40 -195 0 -154 0 -156
-25 -179 -14 -13 -25 -26 -25 -30 0 -3 38 -6 85 -6 47 0 85 3 85 6 0 4 -11 17
-25 30 -24 22 -25 27 -25 155 l0 131 34 34 c29 29 41 34 80 34 71 0 80 -22 84
-192 4 -137 4 -137 -22 -161 -14 -13 -26 -27 -26 -31 0 -3 38 -6 85 -6 47 0
85 3 85 6 0 4 -11 17 -25 30 -24 23 -25 26 -25 169 0 165 -10 204 -59 229 -38
20 -78 20 -116 0z"/>
<path d="M7000 435 c0 -8 9 -15 20 -15 32 0 40 -39 40 -190 0 -143 -9 -190
-35 -190 -8 0 -15 -7 -15 -15 0 -12 16 -15 85 -15 47 0 85 4 85 9 0 5 -11 16
-25 25 l-25 16 0 195 0 195 -65 0 c-51 0 -65 -3 -65 -15z"/>
</g>
</svg>
